<?xml version="1.0" encoding="UTF-8"?>
<svg xmlns="http://www.w3.org/2000/svg" xmlns:xlink="http://www.w3.org/1999/xlink" width="75px" height="31px" viewBox="0 0 74 31" version="1.1">
<g id="surface1">
<path style=" stroke:none;fill-rule:evenodd;fill:rgb(14.509804%,21.960784%,48.235294%);fill-opacity:1;" d="M 48.679688 22.265625 L 53.328125 0 L 70.710938 0 L 69.546875 5.570312 L 60.855469 5.570312 L 60.277344 8.351562 L 67.671875 8.351562 L 66.507812 13.914062 L 59.113281 13.914062 L 58.535156 16.699219 L 67.222656 16.699219 L 66.058594 22.265625 Z M 48.679688 22.265625 "/>
<path style=" stroke:none;fill-rule:evenodd;fill:rgb(87.45098%,12.941176%,15.686275%);fill-opacity:1;" d="M 0 22.265625 C 15.457031 14.84375 36.375 10.113281 55.457031 8.351562 C 60.609375 7.878906 65.71875 7.613281 72.832031 7.613281 C 73.105469 7.613281 73.570312 7.519531 73.941406 7.429688 L 72.503906 14.292969 C 72.429688 14.667969 71.8125 14.851562 71.351562 14.851562 C 27.753906 14.851562 1.664062 22.273438 1.664062 22.273438 L 0 22.273438 Z M 0 22.265625 "/>
<path style=" stroke:none;fill-rule:evenodd;fill:rgb(14.509804%,21.960784%,48.235294%);fill-opacity:1;" d="M 23.410156 22.265625 L 28.058594 0 L 36.382812 0 L 41.328125 10.113281 L 43.441406 0 L 51.757812 0 L 47.105469 22.265625 L 38.792969 22.265625 L 33.917969 11.785156 L 31.730469 22.265625 Z M 23.410156 22.265625 "/>
<path style=" stroke:none;fill-rule:evenodd;fill:rgb(14.509804%,21.960784%,48.235294%);fill-opacity:1;" d="M 15.457031 12.992188 L 18.171875 0 L 26.492188 0 L 23.242188 15.582031 C 22.230469 20.40625 18.492188 22.265625 13.527344 22.265625 L 7.402344 22.265625 L 8.800781 15.582031 L 11.574219 15.582031 C 13.605469 15.582031 15.085938 14.84375 15.472656 12.992188 Z M 15.457031 12.992188 "/>
<path style=" stroke:none;fill-rule:nonzero;fill:rgb(14.509804%,21.960784%,48.627451%);fill-opacity:1;" d="M 42.128906 29.65625 L 42.300781 28.476562 L 44.15625 28.476562 L 44.324219 27.222656 L 42.476562 27.222656 L 42.597656 26.285156 L 44.515625 26.285156 L 44.679688 25.035156 L 41.710938 25.035156 L 40.917969 30.910156 L 44.035156 30.910156 L 44.203125 29.65625 Z M 42.128906 29.65625 "/>
<path style=" stroke:none;fill-rule:nonzero;fill:rgb(14.509804%,21.960784%,48.627451%);fill-opacity:1;" d="M 48.671875 25.035156 L 47.378906 25.035156 L 46.769531 26.101562 C 46.679688 26.261719 46.574219 26.460938 46.453125 26.691406 C 46.359375 26.386719 46.308594 26.21875 46.292969 26.1875 L 45.90625 25.035156 L 44.800781 25.035156 L 45.738281 27.917969 L 44.066406 30.902344 L 45.378906 30.902344 L 45.921875 29.953125 C 46.042969 29.734375 46.148438 29.550781 46.222656 29.398438 C 46.269531 29.550781 46.324219 29.734375 46.390625 29.949219 L 46.695312 30.894531 L 47.867188 30.894531 L 46.9375 28.125 L 48.671875 25.027344 Z M 48.671875 25.035156 "/>
<path style=" stroke:none;fill-rule:nonzero;fill:rgb(14.509804%,21.960784%,48.627451%);fill-opacity:1;" d="M 51.644531 26.589844 C 51.644531 26.269531 51.597656 25.988281 51.5 25.75 C 51.398438 25.5 51.253906 25.316406 51.082031 25.203125 C 50.90625 25.097656 50.671875 25.035156 50.382812 25.035156 L 48.792969 25.035156 L 48.003906 30.902344 L 49.058594 30.902344 L 49.339844 28.789062 L 49.667969 28.789062 C 50 28.789062 50.222656 28.773438 50.351562 28.75 C 50.570312 28.703125 50.746094 28.628906 50.882812 28.535156 C 51.019531 28.445312 51.140625 28.308594 51.253906 28.132812 C 51.371094 27.957031 51.460938 27.734375 51.527344 27.453125 C 51.605469 27.179688 51.636719 26.886719 51.636719 26.589844 Z M 49.683594 26.269531 L 50.070312 26.269531 C 50.375 26.269531 50.441406 26.300781 50.449219 26.308594 C 50.488281 26.332031 50.519531 26.371094 50.539062 26.421875 C 50.570312 26.484375 50.585938 26.574219 50.585938 26.691406 C 50.585938 26.867188 50.554688 27.027344 50.488281 27.171875 C 50.425781 27.308594 50.351562 27.398438 50.246094 27.460938 C 50.183594 27.492188 50.015625 27.550781 49.546875 27.550781 L 49.5 27.550781 L 49.675781 26.277344 Z M 49.683594 26.269531 "/>
<path style=" stroke:none;fill-rule:nonzero;fill:rgb(14.509804%,21.960784%,48.627451%);fill-opacity:1;" d="M 54.449219 28.847656 C 54.394531 28.710938 54.339844 28.589844 54.28125 28.492188 C 54.585938 28.382812 54.828125 28.183594 54.996094 27.902344 C 55.191406 27.574219 55.289062 27.15625 55.289062 26.652344 C 55.289062 26.300781 55.238281 25.996094 55.140625 25.746094 C 55.03125 25.476562 54.878906 25.292969 54.699219 25.1875 C 54.523438 25.089844 54.289062 25.035156 53.984375 25.035156 L 52.257812 25.035156 L 51.46875 30.902344 L 52.523438 30.902344 L 52.835938 28.605469 L 52.996094 28.605469 C 53.171875 28.605469 53.222656 28.644531 53.238281 28.664062 C 53.308594 28.734375 53.40625 28.910156 53.519531 29.320312 C 53.703125 29.976562 53.824219 30.464844 53.890625 30.769531 L 53.914062 30.902344 L 55.039062 30.902344 L 54.988281 30.703125 C 54.78125 29.910156 54.597656 29.285156 54.433594 28.847656 Z M 53.148438 26.285156 L 53.816406 26.285156 C 54.066406 26.285156 54.128906 26.332031 54.128906 26.332031 C 54.195312 26.398438 54.234375 26.515625 54.234375 26.667969 C 54.234375 26.8125 54.203125 26.957031 54.144531 27.085938 C 54.082031 27.214844 54.007812 27.300781 53.90625 27.363281 C 53.847656 27.390625 53.679688 27.453125 53.199219 27.453125 L 52.996094 27.453125 L 53.15625 26.285156 Z M 53.148438 26.285156 "/>
<path style=" stroke:none;fill-rule:nonzero;fill:rgb(14.509804%,21.960784%,48.235294%);fill-opacity:1;" d="M 58.476562 28.476562 L 58.640625 27.222656 L 56.796875 27.222656 L 56.925781 26.285156 L 58.832031 26.285156 L 59 25.035156 L 56.035156 25.035156 L 55.246094 30.910156 L 58.355469 30.910156 L 58.527344 29.65625 L 56.453125 29.65625 L 56.628906 28.476562 Z M 58.476562 28.476562 "/>
<path style=" stroke:none;fill-rule:nonzero;fill:rgb(14.509804%,21.960784%,48.627451%);fill-opacity:1;" d="M 60.695312 26.171875 C 60.855469 26.171875 60.960938 26.21875 61.035156 26.316406 C 61.121094 26.429688 61.171875 26.605469 61.1875 26.84375 L 61.195312 27.003906 L 62.214844 26.933594 L 62.207031 26.773438 C 62.183594 26.234375 62.046875 25.796875 61.796875 25.460938 C 61.539062 25.117188 61.164062 24.945312 60.695312 24.945312 C 60.230469 24.945312 59.867188 25.117188 59.621094 25.46875 C 59.386719 25.804688 59.265625 26.226562 59.265625 26.71875 C 59.265625 27.003906 59.304688 27.261719 59.386719 27.476562 C 59.472656 27.695312 59.585938 27.878906 59.730469 28.023438 C 59.867188 28.15625 60.070312 28.316406 60.359375 28.511719 C 60.703125 28.742188 60.800781 28.839844 60.832031 28.878906 C 60.898438 28.964844 60.929688 29.070312 60.929688 29.199219 C 60.929688 29.351562 60.890625 29.472656 60.808594 29.582031 C 60.734375 29.671875 60.601562 29.71875 60.414062 29.71875 C 60.109375 29.71875 60.011719 29.597656 59.957031 29.503906 C 59.925781 29.453125 59.875 29.300781 59.867188 28.878906 L 59.859375 28.710938 L 58.847656 28.796875 L 58.847656 28.941406 C 58.839844 29.328125 58.886719 29.671875 58.984375 29.976562 C 59.089844 30.296875 59.265625 30.550781 59.515625 30.726562 C 59.765625 30.910156 60.070312 30.992188 60.40625 30.992188 C 60.898438 30.992188 61.296875 30.792969 61.578125 30.40625 C 61.84375 30.03125 61.980469 29.582031 61.980469 29.054688 C 61.980469 28.628906 61.886719 28.269531 61.707031 27.996094 C 61.578125 27.804688 61.308594 27.566406 60.878906 27.277344 C 60.558594 27.0625 60.4375 26.941406 60.382812 26.882812 C 60.320312 26.804688 60.300781 26.707031 60.300781 26.582031 C 60.300781 26.453125 60.328125 26.347656 60.398438 26.261719 C 60.453125 26.195312 60.558594 26.15625 60.703125 26.15625 Z M 60.695312 26.171875 "/>
<path style=" stroke:none;fill-rule:nonzero;fill:rgb(14.509804%,21.960784%,48.627451%);fill-opacity:1;" d="M 64.304688 27.292969 C 63.984375 27.078125 63.863281 26.957031 63.8125 26.894531 C 63.75 26.820312 63.726562 26.71875 63.726562 26.597656 C 63.726562 26.46875 63.757812 26.363281 63.824219 26.277344 C 63.878906 26.210938 63.984375 26.171875 64.136719 26.171875 C 64.289062 26.171875 64.402344 26.21875 64.472656 26.316406 C 64.554688 26.429688 64.609375 26.605469 64.625 26.84375 L 64.640625 27.003906 L 65.65625 26.933594 L 65.648438 26.773438 C 65.628906 26.234375 65.492188 25.796875 65.238281 25.460938 C 64.980469 25.117188 64.609375 24.945312 64.136719 24.945312 C 63.671875 24.945312 63.308594 25.117188 63.058594 25.46875 C 62.824219 25.804688 62.699219 26.226562 62.699219 26.71875 C 62.699219 27.003906 62.738281 27.261719 62.824219 27.476562 C 62.90625 27.695312 63.019531 27.878906 63.164062 28.023438 C 63.300781 28.15625 63.507812 28.316406 63.796875 28.511719 C 64.136719 28.742188 64.234375 28.839844 64.265625 28.878906 C 64.335938 28.964844 64.367188 29.070312 64.367188 29.199219 C 64.367188 29.351562 64.328125 29.472656 64.242188 29.582031 C 64.167969 29.671875 64.039062 29.71875 63.847656 29.71875 C 63.542969 29.71875 63.445312 29.597656 63.394531 29.503906 C 63.363281 29.453125 63.308594 29.300781 63.300781 28.878906 L 63.292969 28.710938 L 62.28125 28.796875 L 62.28125 28.941406 C 62.277344 29.328125 62.320312 29.671875 62.417969 29.976562 C 62.527344 30.296875 62.699219 30.550781 62.953125 30.726562 C 63.203125 30.910156 63.507812 30.992188 63.839844 30.992188 C 64.335938 30.992188 64.730469 30.792969 65.011719 30.40625 C 65.277344 30.03125 65.414062 29.582031 65.414062 29.054688 C 65.414062 28.628906 65.324219 28.269531 65.140625 27.996094 C 65.019531 27.804688 64.746094 27.566406 64.3125 27.277344 Z M 64.304688 27.292969 "/>
</g>
</svg>
