<?xml version="1.0" encoding="UTF-8"?>
<svg xmlns="http://www.w3.org/2000/svg" xmlns:xlink="http://www.w3.org/1999/xlink" width="100px" height="22px" viewBox="0 0 100 22" version="1.1">
<g id="surface1">
<path style=" stroke:none;fill-rule:evenodd;fill:rgb(92.941176%,19.607843%,21.568627%);fill-opacity:1;" d="M 38.3125 5.808594 L 46.871094 5.808594 L 42.65625 21.058594 L 48.585938 21.058594 L 52.800781 5.808594 L 59.710938 5.808594 L 61.300781 3.996094 L 55.707031 3.996094 L 56.441406 3.152344 L 62.050781 3.152344 L 62.851562 2.246094 L 57.105469 2.246094 L 57.84375 1.046875 L 63.902344 1.046875 L 64.824219 0 L 40.949219 0 Z M 38.3125 5.808594 "/>
<path style=" stroke:none;fill-rule:evenodd;fill:rgb(92.941176%,19.607843%,21.568627%);fill-opacity:1;" d="M 16.203125 21.261719 L 0 21.261719 L 2.488281 17.203125 L 11.808594 17.261719 L 16.050781 0.15625 L 21.453125 0.15625 L 17.125 17.261719 Z M 16.203125 21.261719 "/>
<path style=" stroke:none;fill-rule:evenodd;fill:rgb(92.941176%,19.607843%,21.568627%);fill-opacity:1;" d="M 41.386719 21.046875 L 36.128906 21.046875 L 35.226562 20.035156 C 32.71875 21.550781 29.722656 22.3125 26.738281 21.871094 C 23.066406 21.140625 20.855469 18.886719 21.167969 15.207031 C 21.65625 12.640625 22.777344 10.492188 24.421875 8.714844 C 22.582031 4.992188 23.257812 2.4375 24.4375 0.121094 L 37.148438 0.121094 L 35.023438 5.011719 C 33.378906 1.65625 28.164062 2.5 28.367188 6.996094 L 34.589844 13.945312 C 35.121094 13.285156 35.664062 11.78125 36.199219 10.070312 L 40.105469 12.035156 C 39.515625 13.84375 38.839844 15.644531 37.917969 17.148438 L 37.933594 17.164062 L 41.394531 21.046875 Z M 32.125 16.542969 L 27.304688 11.488281 C 22.304688 15.148438 27.375 21.117188 32.125 16.542969 Z M 32.125 16.542969 "/>
<path style=" stroke:none;fill-rule:evenodd;fill:rgb(92.941176%,19.607843%,21.568627%);fill-opacity:1;" d="M 61.914062 13.078125 C 61.914062 13.105469 61.914062 13.148438 61.90625 13.214844 C 61.902344 13.273438 61.890625 13.34375 61.878906 13.417969 C 61.863281 13.488281 61.851562 13.570312 61.832031 13.65625 C 61.8125 13.746094 61.789062 13.816406 61.75 13.886719 C 61.726562 13.949219 61.6875 14.007812 61.644531 14.058594 C 61.601562 14.101562 61.554688 14.125 61.5 14.125 L 58.664062 14.125 L 58.273438 16.082031 L 60.679688 16.082031 C 60.738281 16.082031 60.78125 16.105469 60.804688 16.144531 C 60.828125 16.1875 60.84375 16.246094 60.84375 16.316406 C 60.84375 16.355469 60.839844 16.398438 60.839844 16.449219 C 60.835938 16.511719 60.820312 16.582031 60.804688 16.65625 C 60.796875 16.726562 60.78125 16.808594 60.761719 16.882812 C 60.738281 16.964844 60.710938 17.035156 60.679688 17.101562 C 60.652344 17.164062 60.609375 17.226562 60.574219 17.261719 C 60.53125 17.300781 60.488281 17.324219 60.4375 17.324219 L 58.03125 17.324219 L 57.582031 19.578125 L 60.449219 19.578125 C 60.496094 19.578125 60.539062 19.601562 60.5625 19.648438 C 60.582031 19.6875 60.597656 19.753906 60.597656 19.835938 C 60.597656 19.863281 60.597656 19.90625 60.59375 19.96875 C 60.59375 20.035156 60.578125 20.105469 60.566406 20.175781 C 60.550781 20.257812 60.539062 20.332031 60.519531 20.414062 C 60.496094 20.496094 60.476562 20.566406 60.4375 20.636719 C 60.410156 20.699219 60.375 20.761719 60.332031 20.796875 C 60.289062 20.835938 60.246094 20.859375 60.195312 20.859375 L 56.199219 20.859375 C 56.132812 20.859375 56.074219 20.851562 56.019531 20.832031 C 55.960938 20.8125 55.917969 20.78125 55.894531 20.738281 C 55.855469 20.695312 55.828125 20.644531 55.824219 20.582031 C 55.808594 20.515625 55.808594 20.433594 55.824219 20.34375 L 57.207031 13.347656 C 57.242188 13.171875 57.320312 13.035156 57.429688 12.953125 C 57.539062 12.871094 57.667969 12.828125 57.800781 12.828125 L 61.75 12.828125 C 61.859375 12.828125 61.90625 12.910156 61.90625 13.066406 Z M 66.453125 16.734375 L 67.675781 20.242188 C 67.71875 20.390625 67.746094 20.503906 67.753906 20.597656 C 67.761719 20.683594 67.734375 20.753906 67.675781 20.796875 C 67.617188 20.847656 67.523438 20.878906 67.394531 20.890625 C 67.261719 20.90625 67.085938 20.90625 66.847656 20.90625 C 66.679688 20.90625 66.550781 20.90625 66.453125 20.902344 C 66.351562 20.894531 66.28125 20.878906 66.226562 20.859375 C 66.167969 20.835938 66.136719 20.8125 66.113281 20.777344 C 66.089844 20.75 66.070312 20.707031 66.050781 20.652344 L 65.085938 17.734375 L 63.046875 20.652344 C 63.011719 20.699219 62.980469 20.742188 62.9375 20.777344 C 62.898438 20.8125 62.84375 20.835938 62.777344 20.859375 C 62.707031 20.878906 62.605469 20.894531 62.492188 20.902344 C 62.367188 20.90625 62.222656 20.90625 62.035156 20.90625 C 61.820312 20.90625 61.648438 20.90625 61.53125 20.890625 C 61.410156 20.875 61.328125 20.847656 61.289062 20.804688 C 61.253906 20.761719 61.253906 20.691406 61.296875 20.601562 C 61.332031 20.515625 61.402344 20.402344 61.511719 20.257812 L 64.125 16.722656 L 63.015625 13.457031 C 62.972656 13.3125 62.945312 13.199219 62.9375 13.105469 C 62.929688 13.019531 62.957031 12.953125 63.015625 12.910156 C 63.066406 12.863281 63.160156 12.828125 63.296875 12.824219 C 63.425781 12.808594 63.605469 12.800781 63.835938 12.800781 C 64.007812 12.800781 64.148438 12.808594 64.25 12.820312 C 64.351562 12.824219 64.425781 12.839844 64.484375 12.863281 C 64.542969 12.882812 64.585938 12.910156 64.609375 12.949219 C 64.636719 12.988281 64.65625 13.035156 64.671875 13.09375 L 65.519531 15.714844 L 67.378906 13.0625 C 67.40625 13.019531 67.445312 12.976562 67.488281 12.9375 C 67.523438 12.910156 67.574219 12.878906 67.636719 12.855469 C 67.707031 12.839844 67.792969 12.828125 67.898438 12.820312 C 68.007812 12.8125 68.148438 12.800781 68.328125 12.800781 C 68.554688 12.800781 68.734375 12.808594 68.859375 12.824219 C 68.988281 12.828125 69.0625 12.863281 69.105469 12.910156 C 69.144531 12.953125 69.144531 13.019531 69.105469 13.105469 C 69.070312 13.199219 69 13.3125 68.902344 13.457031 L 66.472656 16.726562 Z M 75.382812 14.816406 C 75.382812 15.042969 75.355469 15.289062 75.300781 15.542969 C 75.253906 15.789062 75.167969 16.046875 75.054688 16.285156 C 74.945312 16.527344 74.792969 16.753906 74.609375 16.972656 C 74.429688 17.1875 74.203125 17.382812 73.941406 17.550781 C 73.679688 17.710938 73.367188 17.851562 73.019531 17.945312 C 72.671875 18.046875 72.269531 18.089844 71.796875 18.089844 L 70.964844 18.089844 L 70.457031 20.65625 C 70.453125 20.699219 70.429688 20.738281 70.398438 20.769531 C 70.359375 20.796875 70.3125 20.832031 70.242188 20.851562 C 70.171875 20.875 70.085938 20.890625 69.980469 20.894531 C 69.871094 20.910156 69.738281 20.910156 69.589844 20.910156 C 69.433594 20.910156 69.308594 20.910156 69.203125 20.894531 C 69.101562 20.890625 69.027344 20.875 68.964844 20.851562 C 68.90625 20.832031 68.875 20.804688 68.855469 20.769531 C 68.832031 20.742188 68.828125 20.699219 68.839844 20.65625 L 70.273438 13.429688 C 70.3125 13.234375 70.386719 13.085938 70.515625 12.992188 C 70.640625 12.890625 70.785156 12.839844 70.960938 12.839844 L 72.703125 12.839844 C 72.917969 12.839844 73.109375 12.847656 73.269531 12.863281 C 73.441406 12.878906 73.601562 12.90625 73.769531 12.933594 C 74.015625 12.980469 74.246094 13.0625 74.445312 13.160156 C 74.644531 13.269531 74.808594 13.398438 74.949219 13.550781 C 75.09375 13.707031 75.195312 13.886719 75.269531 14.101562 C 75.339844 14.308594 75.382812 14.546875 75.382812 14.8125 Z M 73.683594 14.996094 C 73.683594 14.800781 73.636719 14.625 73.539062 14.480469 C 73.449219 14.335938 73.296875 14.238281 73.105469 14.175781 C 73.015625 14.152344 72.921875 14.128906 72.816406 14.117188 C 72.707031 14.101562 72.589844 14.101562 72.460938 14.101562 L 71.75 14.101562 L 71.207031 16.828125 L 71.945312 16.828125 C 72.183594 16.828125 72.382812 16.804688 72.542969 16.742188 C 72.714844 16.695312 72.851562 16.613281 72.980469 16.527344 C 73.109375 16.433594 73.21875 16.328125 73.304688 16.203125 C 73.394531 16.070312 73.464844 15.941406 73.523438 15.808594 C 73.570312 15.671875 73.613281 15.535156 73.636719 15.390625 C 73.664062 15.253906 73.679688 15.121094 73.679688 14.988281 Z M 82.175781 14.59375 C 82.175781 14.863281 82.136719 15.125 82.066406 15.382812 C 81.996094 15.648438 81.886719 15.894531 81.722656 16.125 C 81.570312 16.363281 81.359375 16.570312 81.117188 16.757812 C 80.871094 16.945312 80.566406 17.09375 80.207031 17.203125 C 80.40625 17.285156 80.570312 17.441406 80.707031 17.667969 C 80.839844 17.90625 80.953125 18.222656 81.039062 18.632812 L 81.34375 20.261719 C 81.363281 20.355469 81.382812 20.433594 81.390625 20.503906 C 81.40625 20.574219 81.414062 20.640625 81.414062 20.691406 C 81.414062 20.726562 81.398438 20.761719 81.371094 20.792969 C 81.34375 20.820312 81.300781 20.839844 81.21875 20.863281 C 81.152344 20.882812 81.058594 20.902344 80.9375 20.90625 C 80.8125 20.910156 80.65625 20.910156 80.476562 20.910156 C 80.304688 20.910156 80.164062 20.910156 80.0625 20.894531 C 79.960938 20.890625 79.878906 20.875 79.820312 20.847656 C 79.761719 20.824219 79.730469 20.796875 79.714844 20.761719 C 79.691406 20.722656 79.675781 20.679688 79.671875 20.628906 L 79.367188 18.847656 C 79.339844 18.644531 79.285156 18.460938 79.230469 18.300781 C 79.183594 18.144531 79.101562 18.015625 79.015625 17.90625 C 78.929688 17.800781 78.824219 17.722656 78.707031 17.667969 C 78.578125 17.621094 78.429688 17.589844 78.25 17.589844 L 77.742188 17.589844 L 77.136719 20.652344 C 77.136719 20.695312 77.113281 20.734375 77.078125 20.765625 C 77.039062 20.792969 76.992188 20.824219 76.925781 20.847656 C 76.855469 20.867188 76.769531 20.882812 76.664062 20.890625 C 76.558594 20.90625 76.421875 20.90625 76.265625 20.90625 C 76.113281 20.90625 75.988281 20.90625 75.890625 20.890625 C 75.785156 20.882812 75.710938 20.867188 75.652344 20.847656 C 75.59375 20.824219 75.558594 20.796875 75.539062 20.765625 C 75.515625 20.738281 75.511719 20.695312 75.523438 20.652344 L 76.96875 13.355469 C 77.007812 13.175781 77.078125 13.039062 77.183594 12.960938 C 77.296875 12.878906 77.429688 12.835938 77.582031 12.835938 L 79.714844 12.835938 C 80.089844 12.835938 80.425781 12.871094 80.734375 12.941406 C 81.03125 13.015625 81.285156 13.121094 81.5 13.269531 C 81.71875 13.414062 81.886719 13.597656 81.996094 13.816406 C 82.109375 14.035156 82.167969 14.296875 82.167969 14.589844 Z M 80.441406 14.902344 C 80.441406 14.789062 80.421875 14.679688 80.378906 14.578125 C 80.339844 14.476562 80.277344 14.394531 80.195312 14.3125 C 80.109375 14.242188 80 14.1875 79.863281 14.152344 C 79.71875 14.105469 79.558594 14.089844 79.367188 14.089844 L 78.449219 14.089844 L 77.992188 16.371094 L 78.765625 16.371094 C 79.070312 16.371094 79.332031 16.328125 79.546875 16.238281 C 79.761719 16.148438 79.933594 16.035156 80.066406 15.886719 C 80.195312 15.753906 80.292969 15.597656 80.351562 15.421875 C 80.417969 15.25 80.441406 15.074219 80.441406 14.898438 Z M 88.757812 13.078125 C 88.757812 13.105469 88.757812 13.148438 88.75 13.214844 C 88.746094 13.273438 88.730469 13.34375 88.726562 13.417969 C 88.707031 13.488281 88.699219 13.570312 88.675781 13.65625 C 88.65625 13.746094 88.628906 13.816406 88.597656 13.886719 C 88.570312 13.949219 88.527344 14.007812 88.484375 14.058594 C 88.441406 14.101562 88.398438 14.125 88.351562 14.125 L 85.515625 14.125 L 85.121094 16.082031 L 87.53125 16.082031 C 87.589844 16.082031 87.632812 16.105469 87.652344 16.144531 C 87.679688 16.1875 87.691406 16.246094 87.691406 16.316406 C 87.691406 16.355469 87.691406 16.398438 87.683594 16.449219 C 87.679688 16.511719 87.667969 16.582031 87.660156 16.65625 C 87.652344 16.726562 87.632812 16.808594 87.609375 16.882812 C 87.589844 16.964844 87.566406 17.035156 87.53125 17.101562 C 87.503906 17.164062 87.464844 17.226562 87.421875 17.261719 C 87.378906 17.300781 87.335938 17.324219 87.289062 17.324219 L 84.882812 17.324219 L 84.4375 19.578125 L 87.316406 19.578125 C 87.363281 19.578125 87.402344 19.601562 87.421875 19.648438 C 87.449219 19.6875 87.464844 19.753906 87.464844 19.835938 C 87.464844 19.863281 87.460938 19.90625 87.460938 19.96875 C 87.453125 20.035156 87.445312 20.105469 87.433594 20.175781 C 87.417969 20.257812 87.40625 20.332031 87.386719 20.414062 C 87.363281 20.496094 87.335938 20.566406 87.304688 20.636719 C 87.277344 20.699219 87.238281 20.761719 87.199219 20.796875 C 87.15625 20.835938 87.113281 20.859375 87.050781 20.859375 L 83.058594 20.859375 C 82.996094 20.859375 82.929688 20.851562 82.882812 20.832031 C 82.824219 20.8125 82.78125 20.78125 82.75 20.738281 C 82.710938 20.695312 82.6875 20.644531 82.679688 20.582031 C 82.664062 20.515625 82.671875 20.433594 82.683594 20.34375 L 84.066406 13.347656 C 84.105469 13.171875 84.175781 13.035156 84.285156 12.953125 C 84.398438 12.871094 84.527344 12.828125 84.660156 12.828125 L 88.605469 12.828125 C 88.714844 12.828125 88.769531 12.910156 88.769531 13.066406 Z M 94.191406 13.457031 C 94.191406 13.496094 94.1875 13.542969 94.175781 13.609375 C 94.171875 13.667969 94.160156 13.738281 94.148438 13.808594 C 94.144531 13.878906 94.121094 13.960938 94.105469 14.035156 C 94.085938 14.105469 94.0625 14.183594 94.039062 14.242188 C 94.011719 14.308594 93.976562 14.355469 93.945312 14.398438 C 93.910156 14.441406 93.875 14.464844 93.839844 14.464844 C 93.78125 14.464844 93.710938 14.4375 93.625 14.382812 C 93.539062 14.335938 93.429688 14.273438 93.304688 14.210938 C 93.175781 14.152344 93.035156 14.097656 92.863281 14.046875 C 92.703125 13.988281 92.507812 13.964844 92.296875 13.964844 C 92.074219 13.964844 91.886719 13.992188 91.730469 14.058594 C 91.582031 14.117188 91.453125 14.203125 91.355469 14.300781 C 91.253906 14.40625 91.183594 14.519531 91.140625 14.648438 C 91.09375 14.773438 91.074219 14.898438 91.074219 15.027344 C 91.074219 15.171875 91.109375 15.308594 91.179688 15.421875 C 91.261719 15.535156 91.351562 15.640625 91.480469 15.738281 C 91.605469 15.828125 91.742188 15.921875 91.898438 16.019531 C 92.054688 16.109375 92.21875 16.203125 92.378906 16.304688 C 92.535156 16.398438 92.703125 16.511719 92.859375 16.628906 C 93.011719 16.753906 93.15625 16.878906 93.285156 17.042969 C 93.410156 17.199219 93.507812 17.371094 93.578125 17.570312 C 93.644531 17.773438 93.6875 18.011719 93.6875 18.269531 C 93.6875 18.660156 93.609375 19.015625 93.453125 19.351562 C 93.296875 19.683594 93.078125 19.96875 92.792969 20.21875 C 92.503906 20.460938 92.160156 20.65625 91.753906 20.792969 C 91.347656 20.9375 90.902344 21.007812 90.414062 21.007812 C 90.144531 21.007812 89.90625 20.988281 89.671875 20.9375 C 89.453125 20.902344 89.246094 20.847656 89.078125 20.78125 C 88.90625 20.722656 88.757812 20.65625 88.644531 20.585938 C 88.519531 20.515625 88.429688 20.453125 88.375 20.390625 C 88.316406 20.328125 88.289062 20.234375 88.289062 20.109375 C 88.289062 20.074219 88.296875 20.023438 88.308594 19.957031 C 88.3125 19.886719 88.328125 19.8125 88.34375 19.742188 C 88.359375 19.660156 88.371094 19.585938 88.394531 19.503906 C 88.414062 19.421875 88.4375 19.347656 88.460938 19.28125 C 88.488281 19.21875 88.527344 19.15625 88.5625 19.121094 C 88.601562 19.082031 88.632812 19.058594 88.671875 19.058594 C 88.742188 19.058594 88.828125 19.085938 88.917969 19.152344 C 89.019531 19.21875 89.136719 19.289062 89.28125 19.367188 C 89.425781 19.4375 89.59375 19.519531 89.792969 19.585938 C 89.984375 19.648438 90.21875 19.6875 90.492188 19.6875 C 90.734375 19.6875 90.949219 19.648438 91.132812 19.597656 C 91.3125 19.53125 91.464844 19.445312 91.585938 19.335938 C 91.714844 19.226562 91.808594 19.109375 91.871094 18.960938 C 91.9375 18.828125 91.960938 18.671875 91.960938 18.503906 C 91.960938 18.347656 91.925781 18.210938 91.855469 18.101562 C 91.773438 17.976562 91.683594 17.878906 91.566406 17.777344 C 91.441406 17.675781 91.304688 17.582031 91.152344 17.496094 C 90.996094 17.410156 90.84375 17.324219 90.6875 17.226562 C 90.527344 17.121094 90.367188 17.019531 90.21875 16.902344 C 90.066406 16.785156 89.929688 16.652344 89.808594 16.488281 C 89.683594 16.332031 89.589844 16.160156 89.519531 15.953125 C 89.4375 15.753906 89.40625 15.515625 89.40625 15.25 C 89.40625 14.875 89.476562 14.53125 89.625 14.214844 C 89.777344 13.90625 89.980469 13.636719 90.238281 13.414062 C 90.5 13.1875 90.808594 13.015625 91.175781 12.882812 C 91.539062 12.757812 91.941406 12.699219 92.375 12.699219 C 92.578125 12.699219 92.78125 12.714844 92.964844 12.742188 C 93.148438 12.78125 93.320312 12.8125 93.46875 12.867188 C 93.617188 12.910156 93.753906 12.96875 93.859375 13.023438 C 93.96875 13.085938 94.039062 13.132812 94.078125 13.171875 C 94.121094 13.214844 94.148438 13.257812 94.171875 13.296875 C 94.1875 13.34375 94.199219 13.398438 94.199219 13.457031 Z M 100.039062 13.457031 C 100.039062 13.496094 100.039062 13.542969 100.035156 13.609375 C 100.03125 13.667969 100.019531 13.738281 100.007812 13.808594 C 99.992188 13.878906 99.980469 13.960938 99.960938 14.035156 C 99.945312 14.105469 99.917969 14.183594 99.894531 14.242188 C 99.871094 14.308594 99.832031 14.355469 99.804688 14.398438 C 99.765625 14.441406 99.734375 14.464844 99.699219 14.464844 C 99.640625 14.464844 99.570312 14.4375 99.476562 14.382812 C 99.390625 14.335938 99.285156 14.273438 99.167969 14.210938 C 99.039062 14.152344 98.898438 14.097656 98.726562 14.046875 C 98.554688 13.988281 98.375 13.964844 98.160156 13.964844 C 97.941406 13.964844 97.746094 13.992188 97.597656 14.058594 C 97.441406 14.117188 97.316406 14.203125 97.222656 14.300781 C 97.121094 14.40625 97.050781 14.519531 97 14.648438 C 96.957031 14.773438 96.933594 14.898438 96.933594 15.027344 C 96.933594 15.171875 96.976562 15.308594 97.042969 15.421875 C 97.113281 15.535156 97.214844 15.640625 97.34375 15.738281 C 97.46875 15.828125 97.605469 15.921875 97.761719 16.019531 C 97.917969 16.109375 98.085938 16.203125 98.238281 16.304688 C 98.402344 16.398438 98.566406 16.511719 98.722656 16.628906 C 98.878906 16.753906 99.023438 16.878906 99.140625 17.042969 C 99.269531 17.199219 99.367188 17.371094 99.441406 17.570312 C 99.511719 17.773438 99.554688 18.011719 99.554688 18.269531 C 99.554688 18.660156 99.472656 19.015625 99.316406 19.351562 C 99.160156 19.683594 98.941406 19.96875 98.65625 20.21875 C 98.367188 20.460938 98.023438 20.65625 97.625 20.792969 C 97.214844 20.9375 96.769531 21.007812 96.273438 21.007812 C 96.011719 21.007812 95.769531 20.988281 95.539062 20.9375 C 95.3125 20.902344 95.109375 20.847656 94.941406 20.78125 C 94.773438 20.722656 94.621094 20.65625 94.503906 20.585938 C 94.390625 20.515625 94.300781 20.453125 94.242188 20.390625 C 94.183594 20.328125 94.15625 20.234375 94.15625 20.109375 C 94.15625 20.074219 94.160156 20.023438 94.171875 19.957031 C 94.175781 19.886719 94.191406 19.8125 94.207031 19.742188 C 94.226562 19.660156 94.234375 19.585938 94.257812 19.503906 C 94.277344 19.421875 94.300781 19.347656 94.328125 19.28125 C 94.351562 19.21875 94.390625 19.15625 94.417969 19.121094 C 94.457031 19.082031 94.488281 19.058594 94.53125 19.058594 C 94.601562 19.058594 94.679688 19.085938 94.777344 19.152344 C 94.878906 19.21875 94.992188 19.289062 95.140625 19.367188 C 95.285156 19.4375 95.453125 19.519531 95.652344 19.585938 C 95.84375 19.648438 96.078125 19.6875 96.351562 19.6875 C 96.59375 19.6875 96.808594 19.648438 96.992188 19.597656 C 97.167969 19.53125 97.324219 19.445312 97.445312 19.335938 C 97.574219 19.226562 97.667969 19.109375 97.726562 18.960938 C 97.792969 18.828125 97.828125 18.671875 97.828125 18.503906 C 97.828125 18.347656 97.789062 18.210938 97.714844 18.101562 C 97.644531 17.976562 97.554688 17.878906 97.425781 17.777344 C 97.3125 17.675781 97.167969 17.582031 97.015625 17.496094 C 96.863281 17.410156 96.707031 17.324219 96.539062 17.226562 C 96.386719 17.121094 96.230469 17.019531 96.074219 16.902344 C 95.925781 16.785156 95.785156 16.652344 95.667969 16.488281 C 95.539062 16.332031 95.445312 16.160156 95.378906 15.953125 C 95.296875 15.753906 95.265625 15.515625 95.265625 15.25 C 95.265625 14.875 95.335938 14.53125 95.484375 14.214844 C 95.632812 13.90625 95.832031 13.636719 96.09375 13.414062 C 96.359375 13.1875 96.667969 13.015625 97.035156 12.882812 C 97.398438 12.757812 97.800781 12.699219 98.234375 12.699219 C 98.4375 12.699219 98.640625 12.714844 98.824219 12.742188 C 99.007812 12.78125 99.171875 12.8125 99.328125 12.867188 C 99.476562 12.910156 99.613281 12.96875 99.71875 13.023438 C 99.828125 13.085938 99.894531 13.132812 99.9375 13.171875 C 99.980469 13.214844 100.007812 13.257812 100.03125 13.296875 C 100.046875 13.34375 100.050781 13.398438 100.050781 13.457031 Z M 100.039062 13.457031 "/>
</g>
</svg>
